<svg width="67" height="67" viewBox="0 0 67 67" fill="none" xmlns="http://www.w3.org/2000/svg">
<g clip-path="url(#clip0_2359_27)">
<path d="M50.8788 14.5158L31.784 27.8861C26.1779 23.8709 18.4272 23.6067 12.4586 27.7859C4.88931 33.086 3.04514 43.5448 8.34523 51.1141C13.6453 58.6834 24.1041 60.5276 31.6734 55.2275C37.642 51.0483 40.0446 43.6746 38.1889 37.0333L38.9893 36.4729L46.7654 37.844L48.1365 30.068L55.9126 31.4391L58.5908 15.7955L50.8788 14.5158ZM26.8697 48.3671C23.0965 51.0091 17.8477 50.0836 15.2056 46.3104C12.5636 42.5372 13.4891 37.2883 17.2623 34.6463C21.0355 32.0043 26.2844 32.9298 28.9264 36.703C31.5685 40.4762 30.643 45.7251 26.8697 48.3671Z" fill="#54F4FC"/>
</g>
<defs>
<clipPath id="clip0_2359_27">
<rect width="67" height="67" fill="white"/>
</clipPath>
</defs>
</svg>
