<svg width="67" height="67" viewBox="0 0 67 67" fill="none" xmlns="http://www.w3.org/2000/svg">
<g clip-path="url(#clip0_1_80)">
<path d="M50.25 22.3333H47.4583V16.75C47.4583 9.04496 41.205 2.79163 33.5 2.79163C25.795 2.79163 19.5417 9.04496 19.5417 16.75V22.3333H16.75C13.6792 22.3333 11.1667 24.8458 11.1667 27.9166V55.8333C11.1667 58.9041 13.6792 61.4166 16.75 61.4166H50.25C53.3208 61.4166 55.8333 58.9041 55.8333 55.8333V27.9166C55.8333 24.8458 53.3208 22.3333 50.25 22.3333ZM33.5 47.4583C30.4292 47.4583 27.9167 44.9458 27.9167 41.875C27.9167 38.8041 30.4292 36.2916 33.5 36.2916C36.5708 36.2916 39.0833 38.8041 39.0833 41.875C39.0833 44.9458 36.5708 47.4583 33.5 47.4583ZM42.1542 22.3333H24.8458V16.75C24.8458 11.9762 28.7262 8.09579 33.5 8.09579C38.2737 8.09579 42.1542 11.9762 42.1542 16.75V22.3333Z" fill="#54F4FC"/>
</g>
<defs>
<clipPath id="clip0_1_80">
<rect width="67" height="67" fill="white"/>
</clipPath>
</defs>
</svg>
