<svg xmlns="http://www.w3.org/2000/svg" fill-rule="evenodd" stroke-linejoin="round" stroke-miterlimit="2" clip-rule="evenodd" viewBox="0 0 64 64" id="password">
  <path d="M5,54l-2,0c-0.825,0 -1.575,0.33 -2.117,0.883c-0.553,0.542 -0.883,1.292 -0.883,2.117c0,3.862 3.138,7 7,7c-0,0 50,0 50,0c1.937,0 3.686,-0.782 4.947,-2.053c1.271,-1.261 2.053,-3.01 2.053,-4.947c0,-1.65 -1.35,-3 -3,-3l-2,0l0,-23c-0,-0.552 -0.448,-1 -1,-1c-0.552,0 -1,0.448 -1,1l0,23l-2,0l0,-20c-0,-0.552 -0.448,-1 -1,-1c-0.552,0 -1,0.448 -1,1l0,20l-14,0c-0.552,0 -1,0.448 -1,1c0,0.12 -0.063,0.229 -0.147,0.337c-0.163,0.21 -0.408,0.398 -0.707,0.573c-1.158,0.677 -3.034,1.09 -5.146,1.09c-2.112,-0 -3.988,-0.413 -5.146,-1.09c-0.299,-0.175 -0.544,-0.363 -0.707,-0.573c-0.084,-0.108 -0.147,-0.217 -0.147,-0.337c0,-0.552 -0.448,-1 -1,-1l-14,0l0,-29c0,-0.552 0.448,-1 1,-1c-0,0 23,0 23,0c0.552,-0 1,-0.448 1,-1c-0,-0.552 -0.448,-1 -1,-1l-23,0c-1.654,0 -3,1.346 -3,3l0,29l-2,0l0,-29c0,-2.762 2.238,-5 5,-5c-0,0 22,0 22,0c0.552,-0 1,-0.448 1,-1c-0,-0.552 -0.448,-1 -1,-1l-22,0c-3.866,0 -7,3.134 -7,7l0,29Zm48.993,2c-6.184,-0 -14.221,-0 -14.221,-0c-0.281,0.603 -0.821,1.171 -1.617,1.636c-1.388,0.812 -3.623,1.364 -6.155,1.364c-2.532,0 -4.767,-0.552 -6.155,-1.364c-0.796,-0.465 -1.336,-1.033 -1.617,-1.636c0,0 -21.228,0 -21.228,0c-0.27,0 -0.517,0.106 -0.693,0.287c-0.007,0.007 -0.013,0.013 -0.02,0.02c-0.181,0.176 -0.287,0.423 -0.287,0.693c-0,2.758 2.242,5 5,5l50,0c1.382,0 2.631,-0.557 3.53,-1.464c0.002,-0.002 0.004,-0.004 0.006,-0.006c0.907,-0.899 1.464,-2.148 1.464,-3.53c0,-0.55 -0.45,-1 -1,-1l-6.993,-0l-0.014,-0Zm-37.993,-6l1,0c0.552,-0 1,-0.448 1,-1c-0,-0.552 -0.448,-1 -1,-1l-1,0c-0.552,-0 -1,0.448 -1,1c-0,0.552 0.448,1 1,1Zm17,0l1,0c0.552,-0 1,-0.448 1,-1c-0,-0.552 -0.448,-1 -1,-1l-1,0c-0.552,-0 -1,0.448 -1,1c-0,0.552 0.448,1 1,1Zm13,0l2,0l0.006,-0c0.549,-0.003 0.994,-0.45 0.994,-1c-0,-0.552 -0.448,-1 -1,-1l-2,0c-0.552,-0 -1,0.448 -1,1c-0,0.552 0.448,1 1,1Zm-8,0l4,0l0.006,-0c0.549,-0.003 0.994,-0.45 0.994,-1c-0,-0.552 -0.448,-1 -1,-1l-4,0c-0.552,-0 -1,0.448 -1,1c-0,0.552 0.448,1 1,1Zm-17,0l8,0c0.552,-0 1,-0.448 1,-1c-0,-0.552 -0.448,-1 -1,-1l-8,0c-0.552,-0 -1,0.448 -1,1c-0,0.552 0.448,1 1,1Zm17,-7l-1,0c-0.552,-0 -1,0.448 -1,1c-0,0.552 0.448,1 1,1l1,0c0.552,-0 1,-0.448 1,-1c-0,-0.552 -0.448,-1 -1,-1Zm-20,0l-2,0c-0.552,-0 -1,0.448 -1,1c-0,0.552 0.448,1 1,1l2,0c0.552,-0 1,-0.448 1,-1c-0,-0.552 -0.448,-1 -1,-1Zm15,0l-2,0c-0.552,-0 -1,0.448 -1,1c-0,0.552 0.448,1 1,1l2,0c0.552,-0 1,-0.448 1,-1c-0,-0.552 -0.448,-1 -1,-1Zm-6,0l-5,0c-0.552,-0 -1,0.448 -1,1c-0,0.552 0.448,1 1,1l5,0c0.552,-0 1,-0.448 1,-1c-0,-0.552 -0.448,-1 -1,-1Zm21,0l-6,0c-0.552,-0 -1,0.448 -1,1c-0,0.552 0.448,1 1,1l6,0c0.552,-0 1,-0.448 1,-1c-0,-0.552 -0.448,-1 -1,-1Zm-8,-15l-22,0c-1.658,0 -3,1.342 -3,3c0,-0 0,6 0,6c0,1.658 1.342,3 3,3c-0,0 28,0 28,0c1.658,0 3,-1.342 3,-3l0,-2c0,-0.552 -0.448,-1 -1,-1c-0.552,-0 -1,0.448 -1,1l0,2c0,0.553 -0.447,1 -1,1l-28,0c-0.553,0 -1,-0.447 -1,-1l0,-6c0,-0.553 0.447,-1 1,-1c-0,0 22,0 22,0c0.552,-0 1,-0.448 1,-1c-0,-0.552 -0.448,-1 -1,-1Zm-12,4.586l-0.293,-0.293c-0.39,-0.39 -1.024,-0.39 -1.414,-0c-0.39,0.39 -0.39,1.024 -0,1.414l0.293,0.293l-0.293,0.293c-0.39,0.39 -0.39,1.024 -0,1.414c0.39,0.39 1.024,0.39 1.414,0l0.293,-0.293l0.293,0.293c0.39,0.39 1.024,0.39 1.414,0c0.39,-0.39 0.39,-1.024 0,-1.414l-0.293,-0.293l0.293,-0.293c0.39,-0.39 0.39,-1.024 0,-1.414c-0.39,-0.39 -1.024,-0.39 -1.414,-0l-0.293,0.293Zm14,-0l-0.293,-0.293c-0.39,-0.39 -1.024,-0.39 -1.414,-0c-0.39,0.39 -0.39,1.024 -0,1.414l0.293,0.293l-0.293,0.293c-0.39,0.39 -0.39,1.024 -0,1.414c0.39,0.39 1.024,0.39 1.414,0l0.293,-0.293l0.293,0.293c0.39,0.39 1.024,0.39 1.414,0c0.39,-0.39 0.39,-1.024 0,-1.414l-0.293,-0.293l0.293,-0.293c0.39,-0.39 0.39,-1.024 0,-1.414c-0.39,-0.39 -1.024,-0.39 -1.414,-0l-0.293,0.293Zm-21,-0l-0.293,-0.293c-0.39,-0.39 -1.024,-0.39 -1.414,-0c-0.39,0.39 -0.39,1.024 -0,1.414l0.293,0.293l-0.293,0.293c-0.39,0.39 -0.39,1.024 -0,1.414c0.39,0.39 1.024,0.39 1.414,0l0.293,-0.293l0.293,0.293c0.39,0.39 1.024,0.39 1.414,0c0.39,-0.39 0.39,-1.024 0,-1.414l-0.293,-0.293l0.293,-0.293c0.39,-0.39 0.39,-1.024 0,-1.414c-0.39,-0.39 -1.024,-0.39 -1.414,-0l-0.293,0.293Zm14,-0l-0.293,-0.293c-0.39,-0.39 -1.024,-0.39 -1.414,-0c-0.39,0.39 -0.39,1.024 -0,1.414l0.293,0.293l-0.293,0.293c-0.39,0.39 -0.39,1.024 -0,1.414c0.39,0.39 1.024,0.39 1.414,0l0.293,-0.293l0.293,0.293c0.39,0.39 1.024,0.39 1.414,0c0.39,-0.39 0.39,-1.024 0,-1.414l-0.293,-0.293l0.293,-0.293c0.39,-0.39 0.39,-1.024 0,-1.414c-0.39,-0.39 -1.024,-0.39 -1.414,-0l-0.293,0.293Zm17.42,-1.819c8.032,-4.597 12.507,-13.382 11.418,-22.387c-0.037,-0.311 -0.218,-0.586 -0.488,-0.744l-12.845,-7.5c-0.312,-0.181 -0.697,-0.181 -1.009,0l-12.846,7.5c-0.27,0.158 -0.451,0.433 -0.488,0.744c-1.089,9.005 3.386,17.79 11.418,22.387l1.924,1.101c0.308,0.176 0.686,0.176 0.993,-0l1.923,-1.101Zm-0.993,-1.736l-1.427,0.817c0,-0 -1.427,-0.817 -1.427,-0.817c-7.179,-4.109 -11.255,-11.881 -10.479,-19.921c0,-0.001 11.906,-6.952 11.906,-6.952c0,-0 11.906,6.951 11.906,6.951c0.776,8.041 -3.3,15.813 -10.479,19.922Zm-1.927,-1.774c0.309,0.179 0.691,0.179 1,0c5.987,-3.458 9.564,-9.731 9.499,-16.381c-0.004,-0.352 -0.192,-0.676 -0.496,-0.853l-8.999,-5.254c-0.311,-0.182 -0.697,-0.182 -1.008,-0l-8.999,5.254c-0.304,0.177 -0.492,0.501 -0.496,0.853c-0.065,6.65 3.512,12.923 9.499,16.381Zm0.5,-2.032c-4.884,-3.041 -7.857,-8.223 -7.995,-13.767c0,-0 7.995,-4.668 7.995,-4.668c0,0 7.995,4.668 7.995,4.668c-0.138,5.544 -3.111,10.726 -7.995,13.767l-0,-0Zm-1,-8.396l-0,2.128c-0,0.551 0.448,0.999 1,1c0.552,-0 1,-0.449 1,-1l-0,-2.128c1.165,-0.412 2,-1.524 2,-2.829c0,-1.656 -1.344,-3 -3,-3c-1.656,0 -3,1.344 -3,3c0,1.305 0.835,2.417 2,2.829Zm1.022,-1.829c0.542,-0.012 0.978,-0.456 0.978,-1c0,-0.552 -0.448,-1 -1,-1c-0.552,0 -1,0.448 -1,1c0,0.544 0.436,0.988 0.978,1c0.007,-0 0.015,-0 0.022,-0c0.007,-0.001 0.015,-0 0.022,-0Z" fill="#54f4fc" class="color000000 svgShape"></path>
</svg>
