<svg id="SvgjsSvg1001" width="288" height="288" xmlns="http://www.w3.org/2000/svg" version="1.1" xmlns:xlink="http://www.w3.org/1999/xlink" xmlns:svgjs="http://svgjs.com/svgjs"><defs id="SvgjsDefs1002"></defs><g id="SvgjsG1008"><svg xmlns="http://www.w3.org/2000/svg" enable-background="new 0 0 100 100" viewBox="0 0 100 100" width="288" height="288"><circle cx="60.498" cy="45.951" r="12.016" fill="#54f4fc" class="colorFF5E71 svgShape"></circle><path fill="#54f4fc" d="M84.926,42.356h-18.01c0.013-0.291,0.025-0.582,0.025-0.872c0-6.71-3.981-12.763-10.159-15.429
			l-0.801-0.331c-2.597-0.928-4.344-3.409-4.344-6.172v-2.878c2.457-0.659,4.272-2.896,4.272-5.557c0-3.178-2.585-5.762-5.76-5.762
			c-3.178,0-5.763,2.584-5.763,5.762c0,2.66,1.816,4.897,4.275,5.557v2.878c0,4.016,2.537,7.622,6.247,8.947l0.709,0.297
			c5.069,2.188,8.346,7.169,8.346,12.688c0,0.29-0.033,0.581-0.052,0.872H36.379c-0.019-0.291-0.044-0.578-0.044-0.872v-5.472
			l4.856,3.472c0.67,0.475,1.6,0.321,2.076-0.347c0.479-0.669,0.323-1.601-0.345-2.075l-9.564-6.831v11.253
			c0,0.294,0.029,0.581,0.044,0.872H15.076c-2.183,0-3.969,1.784-3.969,3.969v44.35c0,2.185,1.786,3.969,3.969,3.969h69.851
			c2.181,0,3.967-1.784,3.967-3.969v-44.35C88.893,44.141,87.107,42.356,84.926,42.356z M47.365,11.118
			c0-1.537,1.25-2.784,2.786-2.784c1.534,0,2.784,1.247,2.784,2.784c0,1.535-1.25,2.781-2.784,2.781
			C48.615,13.899,47.365,12.653,47.365,11.118z M66.815,67.696c-0.523-0.634-1.461-0.725-2.095-0.199
			c-0.632,0.521-0.723,1.459-0.2,2.094l18.239,22.078H17.22l17.86-22.091c0.518-0.638,0.417-1.575-0.22-2.094
			c-0.643-0.516-1.578-0.416-2.094,0.222l-18.66,23.081c-0.006-0.037-0.023-0.071-0.023-0.112V48.678l31.646,23.734
			c1.144,0.859,2.616,1.288,4.088,1.288c1.456,0,2.915-0.422,4.053-1.266l32.047-23.763v42.003c0,0.041-0.017,0.075-0.023,0.115
			L66.815,67.696z M33.822,45.331c1.745,7.409,8.395,12.943,16.329,12.943c4.166,0,8.159-1.534,11.25-4.324
			c0.609-0.551,0.658-1.491,0.106-2.101c-0.55-0.612-1.494-0.659-2.1-0.106c-2.543,2.294-5.83,3.557-9.257,3.557
			c-6.284,0-11.591-4.219-13.261-9.969h48.036c0.156,0,0.3,0.047,0.433,0.115c-0.114,0.044-0.225,0.101-0.326,0.179L52.095,70.044
			c-1.219,0.906-3.361,0.902-4.582-0.013L14.976,45.628c-0.106-0.078-0.219-0.135-0.334-0.182c0.134-0.068,0.277-0.115,0.434-0.115
			H33.822z" class="color052049 svgShape"></path></svg></g></svg>