<svg xmlns="http://www.w3.org/2000/svg" viewBox="0 0 512 512" id="Phishing">
  <path d="M442,178.49h-106.57v-46.75c0-5.06-3.05-9.61-7.72-11.55-4.67-1.93-10.05-.87-13.62,2.71l-29.45,29.45c-4.88,4.88-4.88,12.8,0,17.68s12.8,4.88,17.68,0l8.11-8.11v16.57h-82.81v-58.35c12.95-5.03,22.17-17.62,22.17-32.33s-9.21-27.3-22.17-32.33v-14.48c0-6.9-5.6-12.5-12.5-12.5s-12.5,5.6-12.5,12.5v14.48c-12.95,5.03-22.17,17.62-22.17,32.33s9.21,27.3,22.17,32.33v58.35H70c-23.43,0-42.5,19.07-42.5,42.5v220c0,23.43,19.07,42.5,42.5,42.5H442c23.43,0,42.5-19.07,42.5-42.5V220.99c0-23.43-19.07-42.5-42.5-42.5ZM205.45,87.81c0-5.33,4.34-9.67,9.67-9.67s9.67,4.34,9.67,9.67-4.34,9.67-9.67,9.67-9.67-4.34-9.67-9.67Zm254.05,353.18c0,9.65-7.85,17.5-17.5,17.5H70c-9.65,0-17.5-7.85-17.5-17.5V220.99c0-9.65,7.85-17.5,17.5-17.5h240.35c-1.25,21.72-19.31,39-41.33,39-1.41,0-2.77,.25-4.03,.68v-13.86c0-6.9-5.6-12.5-12.5-12.5s-12.5,5.6-12.5,12.5v50.9c0,6.9,5.6,12.5,12.5,12.5s12.5-5.6,12.5-12.5v-13.39c1.27,.43,2.62,.68,4.03,.68,35.81,0,65.07-28.5,66.34-64h106.63c9.65,0,17.5,7.85,17.5,17.5v220Zm-32.87-4.6c-2.46,3.23-6.18,4.92-9.95,4.92-2.64,0-5.31-.83-7.57-2.56l-120.68-92.04-6.66,5.08c-7.59,5.79-16.68,8.68-25.77,8.68s-18.18-2.89-25.77-8.68l-6.66-5.08-120.68,92.04c-5.49,4.19-13.33,3.13-17.52-2.36s-3.13-13.33,2.36-17.52l115.23-87.88-115.22-87.87c-5.49-4.19-6.55-12.03-2.36-17.52,4.19-5.49,12.03-6.55,17.52-2.36l142.49,108.67c6.25,4.76,14.97,4.76,21.22,0l142.49-108.67c5.49-4.19,13.33-3.13,17.52,2.36,4.19,5.49,3.13,13.33-2.36,17.52l-115.22,87.87,115.23,87.88c5.49,4.19,6.55,12.03,2.36,17.52Z" fill="#54f4fc" class="color000000 svgShape"></path>
</svg>
