<svg width="94" height="94" viewBox="0 0 94 94" fill="none" xmlns="http://www.w3.org/2000/svg">
<g clip-path="url(#clip0_2359_3)">
<path d="M75.4167 25.1666V23.7708C75.4167 19.9183 72.29 16.7916 68.4375 16.7916C64.585 16.7916 61.4584 19.9183 61.4584 23.7708V25.1666C59.9229 25.1666 58.6667 26.4229 58.6667 27.9583V39.125C58.6667 40.6604 59.9229 41.9166 61.4584 41.9166H75.4167C76.9521 41.9166 78.2084 40.6604 78.2084 39.125V27.9583C78.2084 26.4229 76.9521 25.1666 75.4167 25.1666ZM73.1834 25.1666H63.6917V23.7708C63.6917 21.1466 65.8134 19.025 68.4375 19.025C71.0617 19.025 73.1834 21.1466 73.1834 23.7708V25.1666ZM66.8184 47.5C66.93 48.4212 67.0417 49.3425 67.0417 50.2916C67.0417 56.0983 64.8084 61.3745 61.1792 65.3387C60.4534 63.0775 58.3875 61.4583 55.875 61.4583H53.0834V53.0833C53.0834 51.5479 51.8271 50.2916 50.2917 50.2916H33.5417V44.7083H39.125C40.6604 44.7083 41.9167 43.452 41.9167 41.9166V36.3333H47.5C50.5709 36.3333 53.0834 33.8208 53.0834 30.75V23.6591C50.4313 22.8216 47.6396 22.375 44.7084 22.375C29.2984 22.375 16.7917 34.8816 16.7917 50.2916C16.7917 65.7016 29.2984 78.2083 44.7084 78.2083C60.1184 78.2083 72.625 65.7016 72.625 50.2916C72.625 49.3425 72.5692 48.4212 72.4854 47.5H66.8184ZM41.9167 72.4295C30.8896 71.0616 22.375 61.6816 22.375 50.2916C22.375 48.5608 22.5984 46.9137 22.9613 45.2945L36.3334 58.6666V61.4583C36.3334 64.5291 38.8459 67.0416 41.9167 67.0416V72.4295Z" fill="#54F4FC"/>
</g>
<defs>
<clipPath id="clip0_2359_3">
<rect width="67" height="67" fill="white" transform="translate(14 14)"/>
</clipPath>
</defs>
</svg>
